<?xml version="1.0" encoding="UTF-8" standalone="no"?>
<!-- Created with Inkscape (http://www.inkscape.org/) -->

<svg
   version="1.1"
   id="svg1"
   width="1000"
   height="1000"
   viewBox="0 0 1000 1000"
   xmlns="http://www.w3.org/2000/svg"
   xmlns:svg="http://www.w3.org/2000/svg">
  <defs
     id="defs1" />
  <g
     id="g1">
    <path
       style="fill:#030606;stroke:none"
       d="M 335.58232,147.29049 V 21.641229 H 175.66265 v 97.619811 c 0,8.76776 3.78819,28.9482 -0.99614,36.34786 -2.58726,4.00158 -10.3595,5.54364 -14.51122,7.44444 -10.25234,4.69391 -20.0633,10.80724 -29.07631,17.5587 -28.26378,21.17181 -49.743383,51.67829 -59.679713,85.56198 -13.743677,46.86705 -7.195785,100.48921 -7.195785,148.84605 v 270.62918 100.5194 c 0,29.53223 -0.584549,58.79698 9.743703,86.98795 20.169738,55.05338 67.923325,96.74861 125.945715,107.66104 22.79827,4.28769 45.78484,1.55611 68.81392,2.56175 52.8198,2.30649 106.02954,0.92848 158.95047,0.92848 h 209.34939 c 37.12623,0 75.49226,2.70286 112.42837,-0.80247 18.5859,-1.76382 37.67207,1.77148 56.21419,-0.44003 49.00782,-5.84503 93.47607,-31.23415 121.3973,-72.21399 41.44533,-60.82903 28.83027,-141.97484 28.83027,-211.67068 V 419.85273 c 0,-49.9743 6.67687,-105.18866 -7.19879,-153.67871 -20.58164,-71.92475 -89.21419,-117.917 -162.41298,-117.917 26.31739,-28.49307 52.66755,-57.05534 79.51339,-85.054882 11.82508,-12.333262 31.52163,-27.11253 38.73025,-42.527442 H 753.31189 712.60507 c -4.89426,0 -12.78915,-1.482717 -17.16905,0.993374 -10.48402,5.926857 -19.32972,20.217431 -27.50134,28.969142 -20.69587,22.165008 -40.93481,44.784495 -61.90457,66.690758 -8.01048,8.3682 -18.02196,25.30082 -29.11446,29.37932 -6.24024,2.29439 -15.6872,0.5832 -22.29184,0.5832 H 504.22489 335.58232 M 864.77106,38.072286 c -9.40732,13.317788 -22.59879,24.95783 -33.8842,36.728246 -19.56634,20.407209 -38.80372,41.196158 -58.10404,61.858098 -58.44383,62.56707 -118.15065,124.10466 -175.67827,187.50736 -22.8592,25.19368 -47.35725,48.94045 -69.89535,74.42302 -5.15035,5.82321 -21.36604,17.20062 -22.12578,25.12985 -0.57775,6.02986 12.15372,16.06743 15.89474,20.29719 17.7988,20.12411 37.91428,38.08549 56.9067,57.02544 53.82163,53.67295 111.17522,104.178 168.64256,153.9509 26.93392,23.32775 54.17739,52.60654 85.2905,70.2847 -6.00326,2.51214 -14.84257,0.96653 -21.32263,0.96653 h -46.52208 c -33.43663,0 -71.04108,3.66733 -102.73628,-9.13658 -24.21168,-9.78077 -45.5359,-33.60618 -64.93708,-50.63855 -41.45012,-36.38922 -82.10601,-74.29684 -121.15127,-113.23423 -20.83515,-20.77763 -42.87572,-40.35888 -63.96787,-60.87741 -13.76084,-13.38657 -28.67138,-28.09263 -30.84645,-48.3408 -2.16117,-20.11868 -0.32359,-42.61746 8.81636,-60.89156 12.72114,-25.43426 37.62092,-46.11271 56.83491,-66.69076 58.07671,-62.19967 116.23319,-124.48617 173.41085,-187.50736 18.86712,-20.79532 38.31799,-41.064668 57.1834,-61.858101 7.22477,-7.963158 17.40201,-24.322894 27.46691,-28.412783 4.04768,-1.64477 10.06946,-0.5832 14.37364,-0.5832 h 32.95314 113.39759 M 318.13654,39.038819 V 715.61176 c -16.42534,-6.93533 -31.85012,-24.95511 -45.55288,-36.32851 -4.05135,-3.36263 -11.65772,-12.73789 -17.03447,-13.22564 -4.8152,-0.4369 -13.41639,9.72479 -16.88788,12.6999 -13.97378,11.97547 -29.19067,28.43455 -45.55288,36.85425 V 39.038819 H 318.13654 M 562.3775,164.68808 c -12.12655,17.16734 -29.31518,31.7809 -43.44992,47.36011 -35.33506,38.94606 -71.60764,77.03827 -106.9422,115.98393 -10.87948,11.99134 -23.21614,23.10181 -32.11479,36.72824 -17.27337,26.45064 -23.97606,64.3969 -13.74244,94.72022 8.03431,23.80659 27.93501,40.86916 46.02177,57.18955 14.54348,13.12311 28.29237,27.18373 42.64525,40.51674 40.65767,37.76875 79.68583,77.20086 121.15127,114.12473 23.41828,20.85337 48.6792,48.43247 77.53681,61.39642 20.84801,9.36576 45.35547,10.67009 67.84471,10.93691 34.47457,0.40899 69.10118,-0.41053 103.70548,0 9.03855,0.10725 18.04444,0.96282 27.13789,0.96282 3.28504,0 8.44462,0.92163 11.32244,-0.99338 3.19767,-2.12792 4.03952,-13.47347 5.15413,-17.37075 -13.41579,-3.17922 -25.99878,-13.7558 -36.82998,-21.86934 C 806.54971,685.44631 782.83695,664.08514 759.12715,643.2717 678.90419,572.84872 601.26013,500.79186 526.51672,424.6854 v -0.96654 c 62.00626,-61.83497 119.63457,-128.16871 180.23493,-191.37349 14.95597,-15.59867 29.93649,-31.35633 44.45731,-47.3601 4.47834,-4.93567 11.26139,-15.76905 18.57951,-16.12005 12.94407,-0.62084 30.89978,9.84378 41.67603,16.13126 41.51082,24.21977 68.94058,67.31053 73.49546,115.00619 1.63294,17.09873 0.16451,35.01392 0.16451,52.19277 v 102.45247 310.25702 c 0,54.34093 2.11583,104.92692 -35.73441,148.84605 -7.11877,8.26019 -15.04122,16.4195 -24.35662,22.23025 -52.8097,-135.78062 -188.01541,-236.51559 -337.28513,-229.99675 -36.53947,1.59575 -71.92747,8.29435 -106.61311,19.93769 -15.1968,5.10126 -30.12354,15.16496 -45.55288,18.68558 V 164.68808 H 562.3775 m 260.71752,5.7992 c 50.47696,19.5294 88.55856,66.32441 96.50669,119.85006 4.33098,29.16653 1.38354,60.42635 1.38354,89.88755 v 165.2771 191.37349 c 0,31.24903 3.40525,64.67051 -0.27673,95.68675 -6.74673,56.83353 -45.66137,114.72544 -103.42876,130.48192 v -0.96653 c 42.95718,-22.8049 74.2384,-67.59771 83.0993,-115.0174 4.73928,-25.36234 3.16041,-51.62986 3.16041,-77.32262 V 464.31324 c 0,-50.7425 2.18752,-102.02401 -0.0382,-152.71218 -2.42663,-55.2658 -30.84814,-113.2176 -81.3755,-140.14725 l 0.96921,-0.96653 m -648.40158,5.79919 v 577.02007 c 20.89767,-10.75344 40.05604,-32.38032 58.15261,-47.43768 5.65114,-4.70206 14.12594,-15.05807 21.32262,-16.84719 5.67065,-1.40974 15.35687,9.95044 19.3842,13.29732 17.38595,14.44826 41.84803,28.96973 55.24498,47.12142 -60.78682,28.30235 -110.83782,86.23113 -142.17475,144.01338 -9.61655,17.73196 -15.41971,36.77851 -23.56018,55.09237 -37.22894,-17.35417 -65.791546,-55.37748 -75.700106,-94.72021 -5.121688,-20.33612 -4.74434,-41.06083 -4.74434,-61.8581 V 465.27977 358.96117 c 0,-21.13618 -1.347264,-42.79468 1.246659,-63.79117 6.415346,-51.92901 41.487577,-99.79397 90.828307,-118.88353 m 697.8313,14.49799 c 13.41827,10.61942 25.87485,20.90741 36.11805,34.79518 37.27442,50.53668 28.81903,112.91645 28.81903,172.04284 V 763.9384 c 0,22.25326 1.95753,45.51105 -0.16451,67.6573 -4.01834,41.93621 -27.88076,88.17275 -65.74178,109.2182 5.27097,-7.44149 13.02459,-13.27071 18.9587,-20.29719 11.55711,-13.6846 21.31984,-29.55517 27.5118,-46.39357 16.26782,-44.23846 10.7129,-93.82559 10.7129,-140.14726 V 490.40963 363.79383 c 0,-28.02945 1.80638,-56.51916 -4.08105,-84.08835 -4.68071,-21.9183 -14.52614,-42.99997 -28.0293,-60.89156 -5.9751,-7.91697 -21.86639,-18.82456 -24.10384,-28.02946 m -692.98525,766.4605 c 1.94533,-13.13604 8.73339,-26.67044 14.23901,-38.66132 11.56202,-25.18129 25.96388,-48.90765 43.33177,-70.55689 110.23813,-137.41277 314.16775,-163.04766 456.1106,-59.77885 40.79905,29.6829 75.52142,69.77997 98.12951,114.87122 5.24251,10.456 10.53371,20.91673 14.60771,31.89558 1.16597,3.14212 4.14044,8.03826 2.48136,11.39257 -1.68382,3.40428 -7.30197,5.19293 -10.54389,6.67323 -10.53626,4.81107 -21.59995,8.23205 -32.95314,10.49612 -15.69826,3.13061 -31.56813,2.36713 -47.4913,2.36713 -4.86723,0 -13.80083,1.70111 -18.03657,-0.99337 -3.22885,-2.054 -4.79139,-7.333 -6.43297,-10.60502 -3.67139,-7.31784 -7.76202,-14.49776 -12.38813,-21.26372 -13.86673,-20.28091 -30.78556,-38.57595 -50.37124,-53.49344 -57.62193,-43.88781 -133.70764,-56.28054 -202.56492,-34.43344 -40.35828,12.80491 -76.61759,38.97769 -103.29418,71.49582 -8.10829,9.88384 -15.39349,20.67952 -21.51032,31.89558 -2.35805,4.32385 -5.24323,13.69499 -9.35184,16.40422 -6.12382,4.03803 -22.38582,0.99337 -29.64018,0.99337 -29.27065,0 -56.17565,0.43413 -84.32128,-8.69879 m 499.14322,7.73226 H 314.2597 c 6.74513,-21.25611 25.30112,-40.70169 40.70682,-56.0589 77.91598,-77.67074 209.14679,-73.68326 285.917,2.8996 15.13562,15.09871 29.50962,33.30367 37.79919,53.1593 z"
       id="path1" />
    <path
       style="fill:#6c5d53;stroke-width:1.33869"
       d="M 823.06747,928.75843 C 817.61403,914.84406 799.84031,881.75744 789.50538,866.28102 729.09245,775.81341 635.7851,717.62149 533.68075,706.7338 c -20.84549,-2.22281 -65.39285,-0.88964 -87.24895,2.6111 -34.25977,5.48747 -58.88102,12.51618 -84.98602,24.26126 -9.57162,4.30642 -19.05957,8.24075 -21.08433,8.74292 l -3.6814,0.91306 V 453.96039 164.65863 h 111.78046 c 61.47925,0 111.78045,0.38977 111.78045,0.86615 0,1.77549 -10.58378,13.76257 -28.78453,32.60106 -10.31462,10.67603 -40.13604,42.58524 -66.2698,70.90934 -26.13377,28.32411 -53.77123,58.14339 -61.41658,66.26506 -16.61003,17.64489 -24.32704,27.7479 -30.41261,39.8158 -14.72495,29.20004 -16.53111,67.56982 -4.3818,93.08599 5.6815,11.93237 17.06596,25.57092 35.42245,42.43595 8.77248,8.05973 22.87768,21.333 31.34488,29.49614 53.36425,51.44801 148.99172,141.20553 173.92825,163.25194 21.06156,18.62054 43.19339,31.53719 61.68085,35.99841 16.05002,3.87303 36.38632,4.79621 113.94655,5.17269 59.90505,0.29079 77.57984,0.003 79.13499,-1.28741 1.6617,-1.37909 5.78694,-16.30182 4.7096,-17.03666 -0.18405,-0.12554 -4.25031,-2.03893 -9.03611,-4.25197 -19.46786,-9.00227 -59.8739,-42.41207 -155.93699,-128.9368 -63.3331,-57.04457 -176.7882,-166.01091 -175.75763,-168.80391 0.20312,-0.55049 15.48839,-16.86231 33.96725,-36.2485 18.47888,-19.38618 53.0792,-56.33194 76.88963,-82.10168 23.81043,-25.76975 57.56271,-61.91433 75.00506,-80.32129 17.44235,-18.40696 35.77894,-38.14334 40.74798,-43.85862 4.96902,-5.71528 10.50785,-10.76119 12.30851,-11.21313 12.96036,-3.25284 47.74352,14.21382 70.06782,35.18516 22.81994,21.43695 38.9143,50.54071 44.79198,80.99826 1.94009,10.05342 2.14479,37.09286 2.03542,268.87495 -0.0775,164.18278 -0.61589,262.55536 -1.48375,271.08433 -4.23613,41.63168 -17.1697,70.48908 -43.03716,96.02457 -12.99439,12.82763 -13.87257,13.14927 -16.63775,6.09397 z"
       id="path2" />
    <path
       style="fill:#6c5d53;stroke-width:1.33869"
       d="M 152.61529,941.71355 C 122.16466,923.37714 98.295494,890.66735 87.963088,853.1156 L 84.361685,840.02677 83.680173,580.99063 C 83.305342,438.52075 83.42919,314.80548 83.955392,306.06781 c 0.526202,-8.73768 2.242355,-21.01845 3.813675,-27.29062 10.215234,-40.77572 37.971773,-76.6727 73.747263,-95.37588 5.63451,-2.94569 10.9056,-5.35579 11.71352,-5.35579 1.06158,0 1.46895,79.8167 1.46895,287.81793 0,158.29987 0.33014,287.81794 0.73365,287.81794 0.4035,0 3.92386,-2.04075 7.823,-4.535 8.25957,-5.28359 18.42563,-13.91319 44.32152,-37.62296 20.87524,-19.11296 25.50328,-22.45346 29.44666,-21.25446 1.47502,0.44849 6.59752,4.23847 11.38333,8.42218 4.78581,4.18372 16.21889,13.29815 25.40684,20.25433 9.18795,6.95615 20.58625,16.44242 25.32956,21.08058 l 8.62419,8.43303 -11.5877,6.49576 c -25.0528,14.04395 -45.40751,29.9788 -67.95929,53.20253 -34.60903,35.64024 -59.81523,74.54957 -77.65883,119.87737 -3.98298,10.11791 -7.87963,18.40105 -8.65922,18.40696 -0.7796,0.006 -4.95884,-2.12175 -9.28722,-4.72816 z"
       id="path3" />
    <path
       style="fill:#917c6f;stroke-width:1.33869"
       d="m 317.99153,957.70742 c 4.89106,-11.41037 16.59121,-26.56017 34.08344,-44.13252 23.53324,-23.64103 45.68581,-38.22787 72.9585,-48.04109 53.9898,-19.42652 113.32342,-15.56155 164.72304,10.73 27.09906,13.86151 52.36685,34.94587 69.78352,58.22989 6.87751,9.19441 17.1668,26.25785 17.1668,28.46888 0,0.49106 -81.3039,0.89284 -180.67532,0.89284 H 315.35619 Z"
       id="path4" />
    <path
       style="fill:#917c6f;stroke-width:1.33869"
       d="m 817.63802,915.32798 c -22.23047,-45.97623 -45.66228,-78.72512 -80.303,-112.2335 -51.05469,-49.38581 -110.85918,-80.47674 -180.44078,-93.80688 -18.46824,-3.53806 -65.70152,-4.84714 -92.08277,-2.55211 -33.92288,2.95111 -70.16878,11.91675 -100.45881,24.84906 -7.48901,3.19742 -16.77903,7.05882 -20.64449,8.58089 l -7.02812,2.76738 V 453.79573 164.65863 h 38.60163 c 21.23089,0 71.20197,0.39942 111.04685,0.8876 l 72.44523,0.8876 -2.48924,3.46314 c -1.36908,1.90473 -14.1682,15.81253 -28.44249,30.90624 -49.66983,52.52118 -134.05276,143.9734 -141.90048,153.78841 -18.29848,22.88558 -26.21294,48.39672 -24.86468,80.14779 1.08272,25.49755 8.24001,41.25427 28.12937,61.92656 12.39056,12.87831 144.28936,137.74107 195.80045,185.35564 43.92413,40.6015 63.27567,53.12697 91.04026,58.92665 16.31372,3.40774 147.53052,6.22606 178.31092,3.82983 l 10.98437,-0.85512 2.06784,-6.06877 c 3.60847,-10.59029 3.14486,-11.70854 -6.96831,-16.8078 -20.0558,-10.11253 -47.98273,-32.69411 -123.4607,-99.82967 -62.19068,-55.31689 -118.26373,-107.78294 -173.08349,-161.94958 -18.9728,-18.74676 -34.33425,-34.5149 -34.13655,-35.04032 0.1977,-0.52542 18.16679,-19.83597 39.9313,-42.91236 21.76452,-23.07637 56.37842,-60.02933 76.91977,-82.11768 35.26858,-37.92471 84.04375,-90.1288 108.50335,-116.13119 10.15553,-10.79609 11.42209,-11.71294 16.17108,-11.70606 10.68405,0.0155 27.92904,7.43881 46.68891,20.09783 31.48911,21.24864 55.64089,56.83784 62.66744,92.3445 2.81517,14.2256 3.87305,187.36595 2.39247,391.56627 -1.11365,153.59376 -1.2538,159.74861 -3.91005,171.71116 -5.09459,22.94378 -12.40028,40.09506 -24.00739,56.36125 -7.15687,10.02964 -25.03337,28.28636 -27.69725,28.28636 -1.04639,0 -5.30605,-7.14062 -9.78264,-16.39893 z"
       id="path5" />
    <path
       style="fill:#917c6f;stroke-width:1.33869"
       d="M 148.57878,937.83687 C 119.49845,918.28585 98.13893,887.40292 87.874582,850.06693 85.135307,840.10297 85.111409,837.97946 84.725853,570.28112 84.364216,319.1898 84.497521,299.68975 86.65346,288.30612 c 8.579278,-45.29968 37.12663,-84.15399 77.05867,-104.88052 4.63338,-2.40493 8.63991,-4.14747 8.90341,-3.87232 0.2635,0.27515 0.92368,129.56653 1.46707,287.31419 0.56404,163.74336 1.49405,286.81392 2.16737,286.81392 3.9921,0 18.14661,-11.22578 47.98027,-38.05262 12.88488,-11.58625 25.19705,-21.99498 27.36039,-23.13048 4.89182,-2.56767 3.23944,-3.56617 32.21123,19.46466 27.68739,22.00978 42.40146,34.90402 41.49813,36.36564 -0.37209,0.60204 -5.64451,3.88654 -11.71651,7.29889 -56.97836,32.02075 -112.8366,97.16919 -140.08895,163.38817 -8.21232,19.95466 -11.20576,26.09822 -12.70011,26.06498 -0.8198,-0.0183 -6.31684,-3.27794 -12.21565,-7.24376 z"
       id="path6" />
    <path
       style="fill:#ac9d93;stroke-width:1.33869"
       d="m 316.59973,963.34704 c 0,-0.49866 1.77639,-4.42566 3.94753,-8.72666 5.36259,-10.62323 18.0029,-26.34552 33.47354,-41.63511 28.41806,-28.08549 55.58337,-43.67338 92.05254,-52.82124 85.55612,-21.46074 177.93503,16.08723 223.26143,90.74596 3.47969,5.73152 6.1101,10.63549 5.84536,10.89771 -0.91583,0.90714 -358.5804,2.44255 -358.5804,1.53934 z"
       id="path7" />
    <path
       style="fill:#ac9d93;stroke-width:1.33869"
       d="m 824.84542,927.37617 c -1.0209,-1.65663 -6.39007,-11.80938 -11.93147,-22.56167 -25.92428,-50.30232 -52.08042,-83.18263 -95.7909,-120.41671 -37.3574,-31.8223 -81.88361,-55.20584 -130.85949,-68.72261 -31.33667,-8.64855 -37.98878,-9.38327 -85.59422,-9.45377 -35.86729,-0.0531 -45.12528,0.33843 -56.89424,2.40623 -33.15477,5.82531 -56.0522,12.49089 -86.13344,25.07399 -10.42447,4.36061 -19.40538,7.92908 -19.95759,7.92996 -0.55221,8.9e-4 -1.00402,-129.79747 -1.00402,-288.44077 V 164.74844 l 79.98662,0.65881 c 91.17479,0.75096 139.55823,1.82847 139.55823,3.10797 0,0.83442 -14.39493,16.42556 -75.03708,81.27262 -39.78392,42.54251 -87.59418,94.83015 -95.74187,104.70797 -8.17273,9.90819 -18.07455,28.97945 -21.33215,41.08652 -2.98004,11.07547 -4.12757,41.59533 -2.03127,54.02363 2.07907,12.32609 9.483,27.35594 19.21949,39.01519 7.01384,8.39894 41.31353,41.48785 118.70744,114.51703 97.7531,92.24019 116.31964,108.8219 136.24509,121.68007 21.78359,14.05723 30.89604,16.42142 72.58079,18.83077 32.9517,1.90459 145.42276,2.5199 153.14694,0.83785 3.02427,-0.6586 4.29448,-2.03006 5.74262,-6.20039 3.56193,-10.25764 2.42578,-12.4345 -10.29518,-19.72589 C 836.64847,706.64921 806.71751,682.3074 741.91754,624.61858 672.10276,562.46526 623.21929,516.74086 566.58588,460.61762 c -19.70307,-19.52557 -35.66692,-35.96093 -35.47524,-36.52299 0.19169,-0.56207 15.70998,-17.41306 34.48508,-37.44664 18.7751,-20.03357 70.45166,-75.31529 114.83681,-122.84825 44.38514,-47.53296 82.63815,-87.73267 85.00669,-89.33268 3.74253,-2.52819 5.20943,-2.7606 11.20249,-1.77491 14.94356,2.4578 42.3667,18.28187 59.19682,34.15855 18.22409,17.19169 33.64207,41.59425 41.00689,64.90298 3.44184,10.893 3.65261,13.26508 4.93651,55.55556 1.61115,53.07005 0.33391,481.12606 -1.50391,504.01606 -2.0142,25.08708 -11.29067,51.34043 -24.85981,70.35589 -6.9378,9.72245 -24.92604,28.70703 -27.20045,28.70703 -0.83388,0 -2.35143,-1.35542 -3.37234,-3.01205 z"
       id="path8" />
    <path
       style="fill:#ac9d93;stroke-width:1.33869"
       d="M 148.83229,937.06893 C 123.53027,920.14592 103.8059,893.59703 91.653839,860.1071 L 87.282067,848.0589 86.109003,775.1004 C 85.463818,734.97323 85.121106,609.97323 85.347422,497.32262 l 0.411482,-204.81927 3.503005,-12.8163 c 9.543217,-34.91535 27.861001,-62.55411 55.022911,-83.02122 10.33788,-7.78983 26.05045,-16.73663 27.26326,-15.52382 0.32693,0.32693 1.17479,126.72179 1.88414,280.87748 0.70935,154.15568 1.62264,282.84329 2.02952,285.97248 0.43818,3.36981 1.44365,5.68942 2.46616,5.68942 2.67965,0 16.67298,-11.12914 42.66296,-33.93061 30.57237,-26.82166 32.32515,-28.14031 36.08901,-27.15016 3.29188,0.86598 48.34657,36.57084 60.87723,48.24389 l 7.7441,7.2141 -4.48123,2.47672 c -10.80186,5.97005 -36.48428,23.36061 -45.06084,30.51245 -45.44548,37.8961 -80.86502,85.89455 -104.27578,141.30831 -7.04717,16.68082 -9.5754,21.41901 -11.42883,21.41901 -0.65763,0 -5.70763,-3.01778 -11.22223,-6.70617 z"
       id="path9" />
    <path
       style="fill:#ac9d93;stroke-width:1.33869"
       d="m 317.93842,961.76032 c 0,-1.97089 8.37621,-16.003 13.13326,-22.00128 30.24854,-38.14116 61.90338,-61.7078 99.78332,-74.28747 13.72782,-4.55892 31.55789,-8.7112 37.40629,-8.7112 1.74902,0 3.5388,-0.35876 3.97729,-0.79726 0.4385,-0.43849 10.32806,-0.72671 21.9768,-0.64047 23.06098,0.17071 39.84153,2.41554 57.99346,7.75812 6.25836,1.842 12.28246,3.4325 13.38688,3.53443 1.10441,0.10194 2.61044,0.6363 3.34672,1.18747 0.73627,0.55116 8.5838,4.57664 17.43894,8.9455 35.12709,17.33066 63.35657,43.11125 83.44794,76.20887 2.39512,3.94564 3.96863,7.5601 3.49666,8.03213 -1.23918,1.23934 -355.38756,2.00781 -355.38756,0.77116 z"
       id="path10" />
  </g>
</svg>
